<?xml version="1.0" encoding="us-ascii" standalone="no"?><svg xmlns="http://www.w3.org/2000/svg" xmlns:xlink="http://www.w3.org/1999/xlink" contentStyleType="text/css" height="730px" preserveAspectRatio="none" style="width:2282px;height:730px;background:#FFFFFF;" version="1.1" viewBox="0 0 2282 730" width="2282px" zoomAndPan="magnify"><defs/><g><!--cluster media--><g id="cluster_media"><rect fill="#F0F0FF" height="201.93" rx="2.5" ry="2.5" style="stroke:#181818;stroke-width:1.0;" width="208" x="838" y="364.84"/><path d="M892,364.84 L892,374.3283 L882,384.3283 L838,384.3283 " fill="none" style="stroke:#181818;stroke-width:1.0;"/><text fill="#000000" font-family="sans-serif" font-size="14" font-weight="bold" lengthAdjust="spacing" textLength="44" x="841" y="379.3752">media</text></g><!--cluster config--><g id="cluster_config"><rect fill="#F0F0FF" height="131.97" rx="2.5" ry="2.5" style="stroke:#181818;stroke-width:1.0;" width="226" x="1576" y="83.2"/><path d="M1631,83.2 L1631,92.6883 L1621,102.6883 L1576,102.6883 " fill="none" style="stroke:#181818;stroke-width:1.0;"/><text fill="#000000" font-family="sans-serif" font-size="14" font-weight="bold" lengthAdjust="spacing" textLength="45" x="1579" y="97.7352">config</text></g><!--cluster telegram_async--><g id="cluster_telegram_async"><rect fill="#F0F0FF" height="148.47" rx="2.5" ry="2.5" style="stroke:#181818;stroke-width:1.0;" width="180" x="1847" y="74.95"/><path d="M1968,74.95 L1968,84.4383 L1958,94.4383 L1847,94.4383 " fill="none" style="stroke:#181818;stroke-width:1.0;"/><text fill="#000000" font-family="sans-serif" font-size="14" font-weight="bold" lengthAdjust="spacing" textLength="111" x="1850" y="89.4852">telegram_async</text></g><!--cluster author--><g id="cluster_author"><rect fill="#F0F0FF" height="218.42" rx="2.5" ry="2.5" style="stroke:#181818;stroke-width:1.0;" width="208" x="1070" y="356.59"/><path d="M1127,356.59 L1127,366.0783 L1117,376.0783 L1070,376.0783 " fill="none" style="stroke:#181818;stroke-width:1.0;"/><text fill="#000000" font-family="sans-serif" font-size="14" font-weight="bold" lengthAdjust="spacing" textLength="47" x="1073" y="371.1252">author</text></g><!--cluster http_client--><g id="cluster_http_client"><rect fill="#F0F0FF" height="148.47" rx="2.5" ry="2.5" style="stroke:#181818;stroke-width:1.0;" width="204" x="2061" y="74.95"/><path d="M2148,74.95 L2148,84.4383 L2138,94.4383 L2061,94.4383 " fill="none" style="stroke:#181818;stroke-width:1.0;"/><text fill="#000000" font-family="sans-serif" font-size="14" font-weight="bold" lengthAdjust="spacing" textLength="77" x="2064" y="89.4852">http_client</text></g><!--cluster parsers--><g id="cluster_parsers"><rect fill="#F0F0FF" height="624.54" rx="2.5" ry="2.5" style="stroke:#181818;stroke-width:1.0;" width="807" x="7" y="99.69"/><path d="M70,99.69 L70,109.1783 L60,119.1783 L7,119.1783 " fill="none" style="stroke:#181818;stroke-width:1.0;"/><text fill="#000000" font-family="sans-serif" font-size="14" font-weight="bold" lengthAdjust="spacing" textLength="53" x="10" y="114.2252">parsers</text></g><!--cluster comment--><g id="cluster_comment"><rect fill="#F0F0FF" height="251.4" rx="2.5" ry="2.5" style="stroke:#181818;stroke-width:1.0;" width="208" x="1302" y="340.1"/><path d="M1379,340.1 L1379,349.5883 L1369,359.5883 L1302,359.5883 " fill="none" style="stroke:#181818;stroke-width:1.0;"/><text fill="#000000" font-family="sans-serif" font-size="14" font-weight="bold" lengthAdjust="spacing" textLength="67" x="1305" y="354.6352">comment</text></g><!--cluster channel--><g id="cluster_channel"><rect fill="#F0F0FF" height="300.86" rx="2.5" ry="2.5" style="stroke:#181818;stroke-width:1.0;" width="448" x="1534" y="315.37"/><path d="M1599,315.37 L1599,324.8583 L1589,334.8583 L1534,334.8583 " fill="none" style="stroke:#181818;stroke-width:1.0;"/><text fill="#000000" font-family="sans-serif" font-size="14" font-weight="bold" lengthAdjust="spacing" textLength="55" x="1537" y="329.9052">channel</text></g><!--cluster post--><g id="cluster_post"><rect fill="#F0F0FF" height="259.4" rx="2.5" ry="2.5" style="stroke:#181818;stroke-width:1.0;" width="270" x="2006" y="336.1"/><path d="M2048,336.1 L2048,345.5883 L2038,355.5883 L2006,355.5883 " fill="none" style="stroke:#181818;stroke-width:1.0;"/><text fill="#000000" font-family="sans-serif" font-size="14" font-weight="bold" lengthAdjust="spacing" textLength="32" x="2009" y="350.6352">post</text></g><!--cluster base_model--><g id="cluster_base_model"><rect fill="#F0F0FF" height="284.37" rx="2.5" ry="2.5" style="stroke:#181818;stroke-width:1.0;" width="208" x="1302" y="7"/><path d="M1397,7 L1397,16.4883 L1387,26.4883 L1302,26.4883 " fill="none" style="stroke:#181818;stroke-width:1.0;"/><text fill="#000000" font-family="sans-serif" font-size="14" font-weight="bold" lengthAdjust="spacing" textLength="85" x="1305" y="21.5352">base_model</text></g><!--class Media--><g id="elem_Media"><rect codeLine="2" fill="#F1F1F1" height="150.9297" id="Media" rx="2.5" ry="2.5" style="stroke:#181818;stroke-width:0.5;" width="176" x="854" y="399.84"/><ellipse cx="917.25" cy="415.84" fill="#ADD1B2" rx="11" ry="11" style="stroke:#181818;stroke-width:1.0;"/><path d="M919.7231,421.9831 Q919.1421,422.2819 918.5029,422.4313 Q917.8638,422.5807 917.1582,422.5807 Q914.6514,422.5807 913.3315,420.9289 Q912.0117,419.277 912.0117,416.1559 Q912.0117,413.0265 913.3315,411.3747 Q914.6514,409.7228 917.1582,409.7228 Q917.8638,409.7228 918.5112,409.8722 Q919.1587,410.0216 919.7231,410.3205 L919.7231,413.0431 Q919.0923,412.4621 918.4988,412.1923 Q917.9053,411.9225 917.2744,411.9225 Q915.9297,411.9225 915.2449,412.9892 Q914.5601,414.0558 914.5601,416.1559 Q914.5601,418.2477 915.2449,419.3144 Q915.9297,420.381 917.2744,420.381 Q917.9053,420.381 918.4988,420.1112 Q919.0923,419.8415 919.7231,419.2604 Z " fill="#000000"/><text fill="#000000" font-family="sans-serif" font-size="14" lengthAdjust="spacing" textLength="41" x="937.75" y="421.131">Media</text><line style="stroke:#181818;stroke-width:0.5;" x1="855" x2="1029" y1="431.84" y2="431.84"/><ellipse cx="865" cy="445.5841" fill="none" rx="3" ry="3" style="stroke:#038048;stroke-width:1.0;"/><text fill="#000000" font-family="sans-serif" font-size="14" lengthAdjust="spacing" textLength="29" x="874" y="449.3752">type</text><ellipse cx="865" cy="462.0724" fill="none" rx="3" ry="3" style="stroke:#038048;stroke-width:1.0;"/><text fill="#000000" font-family="sans-serif" font-size="14" lengthAdjust="spacing" textLength="19" x="874" y="465.8634">url</text><line style="stroke:#181818;stroke-width:1.0;stroke-dasharray:1.0,2.0;" x1="855" x2="1029" y1="472.8166" y2="472.8166"/><polygon fill="#4177AF" points="865,482.5607,861,488.5607,869,488.5607" style="stroke:#1963A0;stroke-width:1.0;"/><text fill="#000000" font-family="sans-serif" font-size="14" lengthAdjust="spacing" textLength="150" x="874" y="490.3517">__init__(self, client, id)</text><ellipse cx="865" cy="503.049" fill="#84BE84" rx="3" ry="3" style="stroke:#038048;stroke-width:1.0;"/><text fill="#000000" font-family="sans-serif" font-size="14" lengthAdjust="spacing" textLength="94" x="874" y="506.84">get_html(self)</text><ellipse cx="865" cy="540.0255" fill="none" rx="3" ry="3" style="stroke:#038048;stroke-width:1.0;"/><text fill="#000000" font-family="sans-serif" font-size="14" lengthAdjust="spacing" text-decoration="underline" textLength="112" x="874" y="543.8166">url_template: str</text><line style="stroke:#181818;stroke-width:0.5;" x1="855" x2="923.5" y1="522.0373" y2="522.0373"/><text fill="#000000" font-family="sans-serif" font-size="14" lengthAdjust="spacing" textLength="37" x="923.5" y="526.8283">Static</text><line style="stroke:#181818;stroke-width:0.5;" x1="960.5" x2="1029" y1="522.0373" y2="522.0373"/></g><!--class Global Variables--><g id="elem_Global Variables"><rect codeLine="13" fill="#F1F1F1" height="80.9766" id="Global Variables" rx="2.5" ry="2.5" style="stroke:#181818;stroke-width:0.5;" width="194" x="1592" y="118.2"/><ellipse cx="1629.95" cy="134.2" fill="#AAAAFF" rx="11" ry="11" style="stroke:#181818;stroke-width:1.0;"/><path d="M1630.0633,139.158 L1632.2464,128.8069 L1634.7117,128.8069 L1631.7649,141.2 L1628.3699,141.2 L1625.4231,128.8069 L1627.8885,128.8069 Z " fill="#000000"/><text fill="#000000" font-family="sans-serif" font-size="14" lengthAdjust="spacing" textLength="111" x="1649.05" y="139.491">Global Variables</text><line style="stroke:#181818;stroke-width:0.5;" x1="1593" x2="1785" y1="150.2" y2="150.2"/><ellipse cx="1603" cy="163.9441" fill="none" rx="3" ry="3" style="stroke:#038048;stroke-width:1.0;"/><text fill="#000000" font-family="sans-serif" font-size="14" lengthAdjust="spacing" textLength="107" x="1612" y="167.7352">request_header</text><ellipse cx="1603" cy="180.4324" fill="none" rx="3" ry="3" style="stroke:#038048;stroke-width:1.0;"/><text fill="#000000" font-family="sans-serif" font-size="14" lengthAdjust="spacing" textLength="168" x="1612" y="184.2234">use_random_user_agent</text><line style="stroke:#181818;stroke-width:0.5;" x1="1593" x2="1785" y1="191.1766" y2="191.1766"/></g><!--class TelegramClient--><g id="elem_TelegramClient"><rect codeLine="19" fill="#F1F1F1" height="97.4648" id="TelegramClient" rx="2.5" ry="2.5" style="stroke:#181818;stroke-width:0.5;" width="149" x="1862.5" y="109.95"/><ellipse cx="1882.9" cy="125.95" fill="#ADD1B2" rx="11" ry="11" style="stroke:#181818;stroke-width:1.0;"/><path d="M1885.3731,132.0931 Q1884.7921,132.3919 1884.1529,132.5413 Q1883.5138,132.6907 1882.8082,132.6907 Q1880.3014,132.6907 1878.9815,131.0389 Q1877.6617,129.387 1877.6617,126.2659 Q1877.6617,123.1365 1878.9815,121.4847 Q1880.3014,119.8328 1882.8082,119.8328 Q1883.5138,119.8328 1884.1612,119.9822 Q1884.8087,120.1316 1885.3731,120.4305 L1885.3731,123.1531 Q1884.7423,122.5721 1884.1488,122.3023 Q1883.5553,122.0325 1882.9244,122.0325 Q1881.5797,122.0325 1880.8949,123.0992 Q1880.2101,124.1658 1880.2101,126.2659 Q1880.2101,128.3577 1880.8949,129.4244 Q1881.5797,130.491 1882.9244,130.491 Q1883.5553,130.491 1884.1488,130.2212 Q1884.7423,129.9515 1885.3731,129.3704 Z " fill="#000000"/><text fill="#000000" font-family="sans-serif" font-size="14" lengthAdjust="spacing" textLength="105" x="1898.1" y="131.241">TelegramClient</text><line style="stroke:#181818;stroke-width:0.5;" x1="1863.5" x2="2010.5" y1="141.95" y2="141.95"/><ellipse cx="1873.5" cy="155.6941" fill="none" rx="3" ry="3" style="stroke:#038048;stroke-width:1.0;"/><text fill="#000000" font-family="sans-serif" font-size="14" lengthAdjust="spacing" textLength="72" x="1882.5" y="159.4852">http_client</text><ellipse cx="1873.5" cy="172.1824" fill="none" rx="3" ry="3" style="stroke:#038048;stroke-width:1.0;"/><text fill="#000000" font-family="sans-serif" font-size="14" lengthAdjust="spacing" textLength="31" x="1882.5" y="175.9734">loop</text><line style="stroke:#181818;stroke-width:1.0;stroke-dasharray:1.0,2.0;" x1="1863.5" x2="2010.5" y1="182.9266" y2="182.9266"/><polygon fill="#4177AF" points="1873.5,192.6707,1869.5,198.6707,1877.5,198.6707" style="stroke:#1963A0;stroke-width:1.0;"/><text fill="#000000" font-family="sans-serif" font-size="14" lengthAdjust="spacing" textLength="123" x="1882.5" y="200.4617">__init__(self, loop)</text></g><!--class Author--><g id="elem_Author"><rect codeLine="27" fill="#F1F1F1" height="167.418" id="Author" rx="2.5" ry="2.5" style="stroke:#181818;stroke-width:0.5;" width="176" x="1086" y="391.59"/><ellipse cx="1145.75" cy="407.59" fill="#ADD1B2" rx="11" ry="11" style="stroke:#181818;stroke-width:1.0;"/><path d="M1148.2231,413.7331 Q1147.6421,414.0319 1147.0029,414.1813 Q1146.3638,414.3307 1145.6582,414.3307 Q1143.1514,414.3307 1141.8315,412.6789 Q1140.5117,411.027 1140.5117,407.9059 Q1140.5117,404.7765 1141.8315,403.1247 Q1143.1514,401.4728 1145.6582,401.4728 Q1146.3638,401.4728 1147.0112,401.6222 Q1147.6587,401.7716 1148.2231,402.0705 L1148.2231,404.7931 Q1147.5923,404.2121 1146.9988,403.9423 Q1146.4053,403.6725 1145.7744,403.6725 Q1144.4297,403.6725 1143.7449,404.7392 Q1143.0601,405.8058 1143.0601,407.9059 Q1143.0601,409.9977 1143.7449,411.0644 Q1144.4297,412.131 1145.7744,412.131 Q1146.4053,412.131 1146.9988,411.8612 Q1147.5923,411.5915 1148.2231,411.0104 Z " fill="#000000"/><text fill="#000000" font-family="sans-serif" font-size="14" lengthAdjust="spacing" textLength="48" x="1166.25" y="412.881">Author</text><line style="stroke:#181818;stroke-width:0.5;" x1="1087" x2="1261" y1="423.59" y2="423.59"/><ellipse cx="1097" cy="437.3341" fill="none" rx="3" ry="3" style="stroke:#038048;stroke-width:1.0;"/><text fill="#000000" font-family="sans-serif" font-size="14" lengthAdjust="spacing" textLength="38" x="1106" y="441.1252">name</text><ellipse cx="1097" cy="453.8224" fill="none" rx="3" ry="3" style="stroke:#038048;stroke-width:1.0;"/><text fill="#000000" font-family="sans-serif" font-size="14" lengthAdjust="spacing" textLength="41" x="1106" y="457.6134">photo</text><ellipse cx="1097" cy="470.3107" fill="none" rx="3" ry="3" style="stroke:#038048;stroke-width:1.0;"/><text fill="#000000" font-family="sans-serif" font-size="14" lengthAdjust="spacing" textLength="68" x="1106" y="474.1017">username</text><line style="stroke:#181818;stroke-width:1.0;stroke-dasharray:1.0,2.0;" x1="1087" x2="1261" y1="481.0548" y2="481.0548"/><polygon fill="#4177AF" points="1097,490.799,1093,496.799,1101,496.799" style="stroke:#1963A0;stroke-width:1.0;"/><text fill="#000000" font-family="sans-serif" font-size="14" lengthAdjust="spacing" textLength="150" x="1106" y="498.59">__init__(self, client, id)</text><ellipse cx="1097" cy="511.2873" fill="#84BE84" rx="3" ry="3" style="stroke:#038048;stroke-width:1.0;"/><text fill="#000000" font-family="sans-serif" font-size="14" lengthAdjust="spacing" textLength="94" x="1106" y="515.0783">get_html(self)</text><ellipse cx="1097" cy="548.2638" fill="none" rx="3" ry="3" style="stroke:#038048;stroke-width:1.0;"/><text fill="#000000" font-family="sans-serif" font-size="14" lengthAdjust="spacing" text-decoration="underline" textLength="112" x="1106" y="552.0548">url_template: str</text><line style="stroke:#181818;stroke-width:0.5;" x1="1087" x2="1155.5" y1="530.2755" y2="530.2755"/><text fill="#000000" font-family="sans-serif" font-size="14" lengthAdjust="spacing" textLength="37" x="1155.5" y="535.0666">Static</text><line style="stroke:#181818;stroke-width:0.5;" x1="1192.5" x2="1261" y1="530.2755" y2="530.2755"/></g><!--class HttpClient--><g id="elem_HttpClient"><rect codeLine="39" fill="#F1F1F1" height="97.4648" id="HttpClient" rx="2.5" ry="2.5" style="stroke:#181818;stroke-width:0.5;" width="171" x="2077.5" y="109.95"/><ellipse cx="2124.25" cy="125.95" fill="#ADD1B2" rx="11" ry="11" style="stroke:#181818;stroke-width:1.0;"/><path d="M2126.7231,132.0931 Q2126.1421,132.3919 2125.5029,132.5413 Q2124.8638,132.6907 2124.1582,132.6907 Q2121.6514,132.6907 2120.3315,131.0389 Q2119.0117,129.387 2119.0117,126.2659 Q2119.0117,123.1365 2120.3315,121.4847 Q2121.6514,119.8328 2124.1582,119.8328 Q2124.8638,119.8328 2125.5112,119.9822 Q2126.1587,120.1316 2126.7231,120.4305 L2126.7231,123.1531 Q2126.0923,122.5721 2125.4988,122.3023 Q2124.9053,122.0325 2124.2744,122.0325 Q2122.9297,122.0325 2122.2449,123.0992 Q2121.5601,124.1658 2121.5601,126.2659 Q2121.5601,128.3577 2122.2449,129.4244 Q2122.9297,130.491 2124.2744,130.491 Q2124.9053,130.491 2125.4988,130.2212 Q2126.0923,129.9515 2126.7231,129.3704 Z " fill="#000000"/><text fill="#000000" font-family="sans-serif" font-size="14" lengthAdjust="spacing" textLength="69" x="2144.75" y="131.241">HttpClient</text><line style="stroke:#181818;stroke-width:0.5;" x1="2078.5" x2="2247.5" y1="141.95" y2="141.95"/><ellipse cx="2088.5" cy="155.6941" fill="none" rx="3" ry="3" style="stroke:#038048;stroke-width:1.0;"/><text fill="#000000" font-family="sans-serif" font-size="14" lengthAdjust="spacing" textLength="51" x="2097.5" y="159.4852">session</text><ellipse cx="2088.5" cy="172.1824" fill="none" rx="3" ry="3" style="stroke:#038048;stroke-width:1.0;"/><text fill="#000000" font-family="sans-serif" font-size="14" lengthAdjust="spacing" textLength="53" x="2097.5" y="175.9734">timeout</text><line style="stroke:#181818;stroke-width:1.0;stroke-dasharray:1.0,2.0;" x1="2078.5" x2="2247.5" y1="182.9266" y2="182.9266"/><polygon fill="#4177AF" points="2088.5,192.6707,2084.5,198.6707,2092.5,198.6707" style="stroke:#1963A0;stroke-width:1.0;"/><text fill="#000000" font-family="sans-serif" font-size="14" lengthAdjust="spacing" textLength="145" x="2097.5" y="200.4617">__init__(self, timeout)</text></g><!--class html_to_text(html_content)--><g id="elem_html_to_text(html_content)"><rect codeLine="47" fill="#F1F1F1" height="48" id="html_to_text(html_content)" rx="2.5" ry="2.5" style="stroke:#181818;stroke-width:0.5;" width="218" x="23" y="134.69"/><ellipse cx="38" cy="150.69" fill="#DDDD00" rx="11" ry="11" style="stroke:#181818;stroke-width:1.0;"/><path d="M41.7305,146.9551 L36.4595,146.9551 L36.4595,149.628 L41.2573,149.628 L41.2573,151.7862 L36.4595,151.7862 L36.4595,157.19 L34.0107,157.19 L34.0107,144.7969 L41.7305,144.7969 Z " fill="#000000"/><text fill="#000000" font-family="sans-serif" font-size="14" lengthAdjust="spacing" textLength="186" x="52" y="155.981">html_to_text(html_content)</text><line style="stroke:#181818;stroke-width:0.5;" x1="24" x2="240" y1="166.69" y2="166.69"/><line style="stroke:#181818;stroke-width:0.5;" x1="24" x2="240" y1="174.69" y2="174.69"/></g><!--class html_to_markdown(html_content)--><g id="elem_html_to_markdown(html_content)"><rect codeLine="49" fill="#F1F1F1" height="48" id="html_to_markdown(html_content)" rx="2.5" ry="2.5" style="stroke:#181818;stroke-width:0.5;" width="264" x="276" y="134.69"/><ellipse cx="291" cy="150.69" fill="#DDDD00" rx="11" ry="11" style="stroke:#181818;stroke-width:1.0;"/><path d="M294.7305,146.9551 L289.4595,146.9551 L289.4595,149.628 L294.2573,149.628 L294.2573,151.7862 L289.4595,151.7862 L289.4595,157.19 L287.0107,157.19 L287.0107,144.7969 L294.7305,144.7969 Z " fill="#000000"/><text fill="#000000" font-family="sans-serif" font-size="14" lengthAdjust="spacing" textLength="232" x="305" y="155.981">html_to_markdown(html_content)</text><line style="stroke:#181818;stroke-width:0.5;" x1="277" x2="539" y1="166.69" y2="166.69"/><line style="stroke:#181818;stroke-width:0.5;" x1="277" x2="539" y1="174.69" y2="174.69"/></g><!--class parse_subscribers(subs_str)--><g id="elem_parse_subscribers(subs_str)"><rect codeLine="51" fill="#F1F1F1" height="48" id="parse_subscribers(subs_str)" rx="2.5" ry="2.5" style="stroke:#181818;stroke-width:0.5;" width="223" x="575.5" y="134.69"/><ellipse cx="590.5" cy="150.69" fill="#DDDD00" rx="11" ry="11" style="stroke:#181818;stroke-width:1.0;"/><path d="M594.2305,146.9551 L588.9595,146.9551 L588.9595,149.628 L593.7573,149.628 L593.7573,151.7862 L588.9595,151.7862 L588.9595,157.19 L586.5107,157.19 L586.5107,144.7969 L594.2305,144.7969 Z " fill="#000000"/><text fill="#000000" font-family="sans-serif" font-size="14" lengthAdjust="spacing" textLength="191" x="604.5" y="155.981">parse_subscribers(subs_str)</text><line style="stroke:#181818;stroke-width:0.5;" x1="576.5" x2="797.5" y1="166.69" y2="166.69"/><line style="stroke:#181818;stroke-width:0.5;" x1="576.5" x2="797.5" y1="174.69" y2="174.69"/></g><!--class get_data_channel(bs)--><g id="elem_get_data_channel(bs)"><rect codeLine="53" fill="#F1F1F1" height="48" id="get_data_channel(bs)" rx="2.5" ry="2.5" style="stroke:#181818;stroke-width:0.5;" width="178" x="55" y="451.3"/><ellipse cx="70" cy="467.3" fill="#DDDD00" rx="11" ry="11" style="stroke:#181818;stroke-width:1.0;"/><path d="M73.7305,463.5651 L68.4595,463.5651 L68.4595,466.238 L73.2573,466.238 L73.2573,468.3962 L68.4595,468.3962 L68.4595,473.8 L66.0107,473.8 L66.0107,461.4069 L73.7305,461.4069 Z " fill="#000000"/><text fill="#000000" font-family="sans-serif" font-size="14" lengthAdjust="spacing" textLength="146" x="84" y="472.591">get_data_channel(bs)</text><line style="stroke:#181818;stroke-width:0.5;" x1="56" x2="232" y1="483.3" y2="483.3"/><line style="stroke:#181818;stroke-width:0.5;" x1="56" x2="232" y1="491.3" y2="491.3"/></g><!--class get_data_posts(bs)--><g id="elem_get_data_posts(bs)"><rect codeLine="55" fill="#F1F1F1" height="48" id="get_data_posts(bs)" rx="2.5" ry="2.5" style="stroke:#181818;stroke-width:0.5;" width="161" x="267.5" y="451.3"/><ellipse cx="282.5" cy="467.3" fill="#DDDD00" rx="11" ry="11" style="stroke:#181818;stroke-width:1.0;"/><path d="M286.2305,463.5651 L280.9595,463.5651 L280.9595,466.238 L285.7573,466.238 L285.7573,468.3962 L280.9595,468.3962 L280.9595,473.8 L278.5107,473.8 L278.5107,461.4069 L286.2305,461.4069 Z " fill="#000000"/><text fill="#000000" font-family="sans-serif" font-size="14" lengthAdjust="spacing" textLength="129" x="296.5" y="472.591">get_data_posts(bs)</text><line style="stroke:#181818;stroke-width:0.5;" x1="268.5" x2="427.5" y1="483.3" y2="483.3"/><line style="stroke:#181818;stroke-width:0.5;" x1="268.5" x2="427.5" y1="491.3" y2="491.3"/></g><!--class get_data_author(msg)--><g id="elem_get_data_author(msg)"><rect codeLine="57" fill="#F1F1F1" height="48" id="get_data_author(msg)" rx="2.5" ry="2.5" style="stroke:#181818;stroke-width:0.5;" width="183" x="463.5" y="451.3"/><ellipse cx="478.5" cy="467.3" fill="#DDDD00" rx="11" ry="11" style="stroke:#181818;stroke-width:1.0;"/><path d="M482.2305,463.5651 L476.9595,463.5651 L476.9595,466.238 L481.7573,466.238 L481.7573,468.3962 L476.9595,468.3962 L476.9595,473.8 L474.5107,473.8 L474.5107,461.4069 L482.2305,461.4069 Z " fill="#000000"/><text fill="#000000" font-family="sans-serif" font-size="14" lengthAdjust="spacing" textLength="151" x="492.5" y="472.591">get_data_author(msg)</text><line style="stroke:#181818;stroke-width:0.5;" x1="464.5" x2="645.5" y1="483.3" y2="483.3"/><line style="stroke:#181818;stroke-width:0.5;" x1="464.5" x2="645.5" y1="491.3" y2="491.3"/></g><!--class get_data_comment(msg, post_url)--><g id="elem_get_data_comment(msg, post_url)"><rect codeLine="59" fill="#F1F1F1" height="48" id="get_data_comment(msg, post_url)" rx="2.5" ry="2.5" style="stroke:#181818;stroke-width:0.5;" width="265" x="23.5" y="660.23"/><ellipse cx="38.5" cy="676.23" fill="#DDDD00" rx="11" ry="11" style="stroke:#181818;stroke-width:1.0;"/><path d="M42.2305,672.4951 L36.9595,672.4951 L36.9595,675.168 L41.7573,675.168 L41.7573,677.3262 L36.9595,677.3262 L36.9595,682.73 L34.5107,682.73 L34.5107,670.3369 L42.2305,670.3369 Z " fill="#000000"/><text fill="#000000" font-family="sans-serif" font-size="14" lengthAdjust="spacing" textLength="233" x="52.5" y="681.521">get_data_comment(msg, post_url)</text><line style="stroke:#181818;stroke-width:0.5;" x1="24.5" x2="287.5" y1="692.23" y2="692.23"/><line style="stroke:#181818;stroke-width:0.5;" x1="24.5" x2="287.5" y1="700.23" y2="700.23"/></g><!--class Comment--><g id="elem_Comment"><rect codeLine="63" fill="#F1F1F1" height="200.3945" id="Comment" rx="2.5" ry="2.5" style="stroke:#181818;stroke-width:0.5;" width="176" x="1318" y="375.1"/><ellipse cx="1368.25" cy="391.1" fill="#ADD1B2" rx="11" ry="11" style="stroke:#181818;stroke-width:1.0;"/><path d="M1370.7231,397.2431 Q1370.1421,397.5419 1369.5029,397.6913 Q1368.8638,397.8407 1368.1582,397.8407 Q1365.6514,397.8407 1364.3315,396.1889 Q1363.0117,394.537 1363.0117,391.4159 Q1363.0117,388.2865 1364.3315,386.6347 Q1365.6514,384.9828 1368.1582,384.9828 Q1368.8638,384.9828 1369.5112,385.1322 Q1370.1587,385.2816 1370.7231,385.5805 L1370.7231,388.3031 Q1370.0923,387.7221 1369.4988,387.4523 Q1368.9053,387.1825 1368.2744,387.1825 Q1366.9297,387.1825 1366.2449,388.2492 Q1365.5601,389.3158 1365.5601,391.4159 Q1365.5601,393.5077 1366.2449,394.5744 Q1366.9297,395.641 1368.2744,395.641 Q1368.9053,395.641 1369.4988,395.3712 Q1370.0923,395.1015 1370.7231,394.5204 Z " fill="#000000"/><text fill="#000000" font-family="sans-serif" font-size="14" lengthAdjust="spacing" textLength="67" x="1388.75" y="396.391">Comment</text><line style="stroke:#181818;stroke-width:0.5;" x1="1319" x2="1493" y1="407.1" y2="407.1"/><ellipse cx="1329" cy="420.8441" fill="none" rx="3" ry="3" style="stroke:#038048;stroke-width:1.0;"/><text fill="#000000" font-family="sans-serif" font-size="14" lengthAdjust="spacing" textLength="46" x="1338" y="424.6352">author</text><ellipse cx="1329" cy="437.3324" fill="none" rx="3" ry="3" style="stroke:#038048;stroke-width:1.0;"/><text fill="#000000" font-family="sans-serif" font-size="14" lengthAdjust="spacing" textLength="60" x="1338" y="441.1234">datetime</text><ellipse cx="1329" cy="453.8207" fill="none" rx="3" ry="3" style="stroke:#038048;stroke-width:1.0;"/><text fill="#000000" font-family="sans-serif" font-size="14" lengthAdjust="spacing" textLength="90" x="1338" y="457.6117">html_content</text><ellipse cx="1329" cy="470.309" fill="none" rx="3" ry="3" style="stroke:#038048;stroke-width:1.0;"/><text fill="#000000" font-family="sans-serif" font-size="14" lengthAdjust="spacing" textLength="30" x="1338" y="474.1">post</text><ellipse cx="1329" cy="486.7973" fill="none" rx="3" ry="3" style="stroke:#038048;stroke-width:1.0;"/><text fill="#000000" font-family="sans-serif" font-size="14" lengthAdjust="spacing" textLength="34" x="1338" y="490.5883">reply</text><line style="stroke:#181818;stroke-width:1.0;stroke-dasharray:1.0,2.0;" x1="1319" x2="1493" y1="497.5414" y2="497.5414"/><polygon fill="#4177AF" points="1329,507.2855,1325,513.2855,1333,513.2855" style="stroke:#1963A0;stroke-width:1.0;"/><text fill="#000000" font-family="sans-serif" font-size="14" lengthAdjust="spacing" textLength="150" x="1338" y="515.0766">__init__(self, client, id)</text><ellipse cx="1329" cy="527.7738" fill="#84BE84" rx="3" ry="3" style="stroke:#038048;stroke-width:1.0;"/><text fill="#000000" font-family="sans-serif" font-size="14" lengthAdjust="spacing" textLength="94" x="1338" y="531.5648">get_html(self)</text><ellipse cx="1329" cy="564.7504" fill="none" rx="3" ry="3" style="stroke:#038048;stroke-width:1.0;"/><text fill="#000000" font-family="sans-serif" font-size="14" lengthAdjust="spacing" text-decoration="underline" textLength="112" x="1338" y="568.5414">url_template: str</text><line style="stroke:#181818;stroke-width:0.5;" x1="1319" x2="1387.5" y1="546.7621" y2="546.7621"/><text fill="#000000" font-family="sans-serif" font-size="14" lengthAdjust="spacing" textLength="37" x="1387.5" y="551.5531">Static</text><line style="stroke:#181818;stroke-width:0.5;" x1="1424.5" x2="1493" y1="546.7621" y2="546.7621"/></g><!--class Global Variables--><g id="elem_Global Variables"><rect codeLine="77" fill="#F1F1F1" height="64.4883" id="Global Variables" rx="2.5" ry="2.5" style="stroke:#181818;stroke-width:0.5;" width="143" x="1823.5" y="443.06"/><ellipse cx="1838.5" cy="459.06" fill="#AAAAFF" rx="11" ry="11" style="stroke:#181818;stroke-width:1.0;"/><path d="M1838.6133,464.018 L1840.7964,453.6669 L1843.2617,453.6669 L1840.3149,466.06 L1836.9199,466.06 L1833.9731,453.6669 L1836.4385,453.6669 Z " fill="#000000"/><text fill="#000000" font-family="sans-serif" font-size="14" lengthAdjust="spacing" textLength="111" x="1852.5" y="464.351">Global Variables</text><line style="stroke:#181818;stroke-width:0.5;" x1="1824.5" x2="1965.5" y1="475.06" y2="475.06"/><ellipse cx="1834.5" cy="488.8041" fill="none" rx="3" ry="3" style="stroke:#038048;stroke-width:1.0;"/><text fill="#000000" font-family="sans-serif" font-size="14" lengthAdjust="spacing" textLength="93" x="1843.5" y="492.5952">POST_COUNT</text><line style="stroke:#181818;stroke-width:0.5;" x1="1824.5" x2="1965.5" y1="499.5483" y2="499.5483"/></g><!--class Channel--><g id="elem_Channel"><rect codeLine="80" fill="#F1F1F1" height="249.8594" id="Channel" rx="2.5" ry="2.5" style="stroke:#181818;stroke-width:0.5;" width="238" x="1550" y="350.37"/><ellipse cx="1636.25" cy="366.37" fill="#ADD1B2" rx="11" ry="11" style="stroke:#181818;stroke-width:1.0;"/><path d="M1638.7231,372.5131 Q1638.1421,372.8119 1637.5029,372.9613 Q1636.8638,373.1107 1636.1582,373.1107 Q1633.6514,373.1107 1632.3315,371.4589 Q1631.0117,369.807 1631.0117,366.6859 Q1631.0117,363.5565 1632.3315,361.9047 Q1633.6514,360.2528 1636.1582,360.2528 Q1636.8638,360.2528 1637.5112,360.4022 Q1638.1587,360.5516 1638.7231,360.8505 L1638.7231,363.5731 Q1638.0923,362.9921 1637.4988,362.7223 Q1636.9053,362.4525 1636.2744,362.4525 Q1634.9297,362.4525 1634.2449,363.5192 Q1633.5601,364.5858 1633.5601,366.6859 Q1633.5601,368.7777 1634.2449,369.8444 Q1634.9297,370.911 1636.2744,370.911 Q1636.9053,370.911 1637.4988,370.6412 Q1638.0923,370.3715 1638.7231,369.7904 Z " fill="#000000"/><text fill="#000000" font-family="sans-serif" font-size="14" lengthAdjust="spacing" textLength="57" x="1656.75" y="371.661">Channel</text><line style="stroke:#181818;stroke-width:0.5;" x1="1551" x2="1787" y1="382.37" y2="382.37"/><rect fill="none" height="6" style="stroke:#C82930;stroke-width:1.0;" width="6" x="1558" y="393.1141"/><text fill="#000000" font-family="sans-serif" font-size="14" lengthAdjust="spacing" textLength="51" x="1570" y="399.9052">__posts</text><ellipse cx="1561" cy="412.6024" fill="none" rx="3" ry="3" style="stroke:#038048;stroke-width:1.0;"/><text fill="#000000" font-family="sans-serif" font-size="14" lengthAdjust="spacing" textLength="77" x="1570" y="416.3934">description</text><ellipse cx="1561" cy="429.0907" fill="none" rx="3" ry="3" style="stroke:#038048;stroke-width:1.0;"/><text fill="#000000" font-family="sans-serif" font-size="14" lengthAdjust="spacing" textLength="38" x="1570" y="432.8817">name</text><ellipse cx="1561" cy="445.579" fill="none" rx="3" ry="3" style="stroke:#038048;stroke-width:1.0;"/><text fill="#000000" font-family="sans-serif" font-size="14" lengthAdjust="spacing" textLength="48" x="1570" y="449.37">picture</text><ellipse cx="1561" cy="462.0673" fill="none" rx="3" ry="3" style="stroke:#038048;stroke-width:1.0;"/><text fill="#000000" font-family="sans-serif" font-size="14" lengthAdjust="spacing" textLength="47" x="1570" y="465.8583">private</text><ellipse cx="1561" cy="478.5555" fill="none" rx="3" ry="3" style="stroke:#038048;stroke-width:1.0;"/><text fill="#000000" font-family="sans-serif" font-size="14" lengthAdjust="spacing" textLength="79" x="1570" y="482.3466">subscribers</text><line style="stroke:#181818;stroke-width:1.0;stroke-dasharray:1.0,2.0;" x1="1551" x2="1787" y1="489.2997" y2="489.2997"/><polygon fill="#4177AF" points="1561,499.0438,1557,505.0438,1565,505.0438" style="stroke:#1963A0;stroke-width:1.0;"/><text fill="#000000" font-family="sans-serif" font-size="14" lengthAdjust="spacing" textLength="150" x="1570" y="506.8348">__init__(self, client, id)</text><ellipse cx="1561" cy="519.5321" fill="#84BE84" rx="3" ry="3" style="stroke:#038048;stroke-width:1.0;"/><text fill="#000000" font-family="sans-serif" font-size="14" lengthAdjust="spacing" textLength="94" x="1570" y="523.3231">get_html(self)</text><ellipse cx="1561" cy="536.0204" fill="#84BE84" rx="3" ry="3" style="stroke:#038048;stroke-width:1.0;"/><text fill="#000000" font-family="sans-serif" font-size="14" lengthAdjust="spacing" textLength="209" x="1570" y="539.8114">get_next_post_id(self, post_id)</text><ellipse cx="1561" cy="552.5087" fill="#84BE84" rx="3" ry="3" style="stroke:#038048;stroke-width:1.0;"/><text fill="#000000" font-family="sans-serif" font-size="14" lengthAdjust="spacing" textLength="212" x="1570" y="556.2997">get_prior_post_id(self, post_id)</text><ellipse cx="1561" cy="589.4852" fill="none" rx="3" ry="3" style="stroke:#038048;stroke-width:1.0;"/><text fill="#000000" font-family="sans-serif" font-size="14" lengthAdjust="spacing" text-decoration="underline" textLength="112" x="1570" y="593.2763">url_template: str</text><line style="stroke:#181818;stroke-width:0.5;" x1="1551" x2="1650.5" y1="571.497" y2="571.497"/><text fill="#000000" font-family="sans-serif" font-size="14" lengthAdjust="spacing" textLength="37" x="1650.5" y="576.288">Static</text><line style="stroke:#181818;stroke-width:0.5;" x1="1687.5" x2="1787" y1="571.497" y2="571.497"/></g><!--class Post--><g id="elem_Post"><rect codeLine="97" fill="#F1F1F1" height="208.3945" id="Post" rx="2.5" ry="2.5" style="stroke:#181818;stroke-width:0.5;" width="238" x="2022" y="371.1"/><ellipse cx="2122.25" cy="387.1" fill="#ADD1B2" rx="11" ry="11" style="stroke:#181818;stroke-width:1.0;"/><path d="M2124.7231,393.2431 Q2124.1421,393.5419 2123.5029,393.6913 Q2122.8638,393.8407 2122.1582,393.8407 Q2119.6514,393.8407 2118.3315,392.1889 Q2117.0117,390.537 2117.0117,387.4159 Q2117.0117,384.2865 2118.3315,382.6347 Q2119.6514,380.9828 2122.1582,380.9828 Q2122.8638,380.9828 2123.5112,381.1322 Q2124.1587,381.2816 2124.7231,381.5805 L2124.7231,384.3031 Q2124.0923,383.7221 2123.4988,383.4523 Q2122.9053,383.1825 2122.2744,383.1825 Q2120.9297,383.1825 2120.2449,384.2492 Q2119.5601,385.3158 2119.5601,387.4159 Q2119.5601,389.5077 2120.2449,390.5744 Q2120.9297,391.641 2122.2744,391.641 Q2122.9053,391.641 2123.4988,391.3712 Q2124.0923,391.1015 2124.7231,390.5204 Z " fill="#000000"/><text fill="#000000" font-family="sans-serif" font-size="14" lengthAdjust="spacing" textLength="29" x="2142.75" y="392.391">Post</text><line style="stroke:#181818;stroke-width:0.5;" x1="2023" x2="2259" y1="403.1" y2="403.1"/><ellipse cx="2033" cy="416.8441" fill="none" rx="3" ry="3" style="stroke:#038048;stroke-width:1.0;"/><text fill="#000000" font-family="sans-serif" font-size="14" lengthAdjust="spacing" textLength="54" x="2042" y="420.6352">channel</text><ellipse cx="2033" cy="433.3324" fill="none" rx="3" ry="3" style="stroke:#038048;stroke-width:1.0;"/><text fill="#000000" font-family="sans-serif" font-size="14" lengthAdjust="spacing" textLength="60" x="2042" y="437.1234">datetime</text><ellipse cx="2033" cy="449.8207" fill="none" rx="3" ry="3" style="stroke:#038048;stroke-width:1.0;"/><text fill="#000000" font-family="sans-serif" font-size="14" lengthAdjust="spacing" textLength="90" x="2042" y="453.6117">html_content</text><ellipse cx="2033" cy="466.309" fill="none" rx="3" ry="3" style="stroke:#038048;stroke-width:1.0;"/><text fill="#000000" font-family="sans-serif" font-size="14" lengthAdjust="spacing" textLength="42" x="2042" y="470.1">media</text><ellipse cx="2033" cy="482.7973" fill="none" rx="3" ry="3" style="stroke:#038048;stroke-width:1.0;"/><text fill="#000000" font-family="sans-serif" font-size="14" lengthAdjust="spacing" textLength="37" x="2042" y="486.5883">views</text><line style="stroke:#181818;stroke-width:1.0;stroke-dasharray:1.0,2.0;" x1="2023" x2="2259" y1="493.5414" y2="493.5414"/><polygon fill="#4177AF" points="2033,503.2855,2029,509.2855,2037,509.2855" style="stroke:#1963A0;stroke-width:1.0;"/><text fill="#000000" font-family="sans-serif" font-size="14" lengthAdjust="spacing" textLength="212" x="2042" y="511.0766">__init__(self, client, channel, id)</text><ellipse cx="2033" cy="523.7738" fill="#84BE84" rx="3" ry="3" style="stroke:#038048;stroke-width:1.0;"/><text fill="#000000" font-family="sans-serif" font-size="14" lengthAdjust="spacing" textLength="94" x="2042" y="527.5648">get_html(self)</text><ellipse cx="2033" cy="560.7504" fill="none" rx="3" ry="3" style="stroke:#038048;stroke-width:1.0;"/><text fill="#000000" font-family="sans-serif" font-size="14" lengthAdjust="spacing" text-decoration="underline" textLength="112" x="2042" y="564.5414">url_template: str</text><line style="stroke:#181818;stroke-width:0.5;" x1="2023" x2="2122.5" y1="542.7621" y2="542.7621"/><text fill="#000000" font-family="sans-serif" font-size="14" lengthAdjust="spacing" textLength="37" x="2122.5" y="547.5531">Static</text><line style="stroke:#181818;stroke-width:0.5;" x1="2159.5" x2="2259" y1="542.7621" y2="542.7621"/><line style="stroke:#181818;stroke-width:1.0;" x1="2023" x2="2259" y1="571.4945" y2="571.4945"/></g><!--entity __init__--><g id="elem___init__"><rect fill="#F0F0FF" height="54.7324" rx="2.5" ry="2.5" style="stroke:#181818;stroke-width:0.5;" width="70" x="1023" y="131.32"/><path d="M1046.3333,131.32 L1046.3333,136.32 L1039.3333,143.32 L1023,143.32 " fill="none" style="stroke:#181818;stroke-width:0.5;"/><line style="stroke:#181818;stroke-width:0.5;" x1="1024" x2="1047" y1="159.5641" y2="159.5641"/><text fill="#000000" font-family="sans-serif" font-size="14" lengthAdjust="spacing" textLength="22" x="1047" y="164.3552">init</text><line style="stroke:#181818;stroke-width:0.5;" x1="1069" x2="1092" y1="159.5641" y2="159.5641"/></g><!--class BaseModel--><g id="elem_BaseModel"><rect codeLine="119" fill="#F1F1F1" height="233.3711" id="BaseModel" rx="2.5" ry="2.5" style="stroke:#181818;stroke-width:0.5;" width="176" x="1318" y="42"/><ellipse cx="1365.25" cy="58" fill="#ADD1B2" rx="11" ry="11" style="stroke:#181818;stroke-width:1.0;"/><path d="M1367.7231,64.1431 Q1367.1421,64.4419 1366.5029,64.5913 Q1365.8638,64.7407 1365.1582,64.7407 Q1362.6514,64.7407 1361.3315,63.0889 Q1360.0117,61.437 1360.0117,58.3159 Q1360.0117,55.1865 1361.3315,53.5347 Q1362.6514,51.8828 1365.1582,51.8828 Q1365.8638,51.8828 1366.5112,52.0322 Q1367.1587,52.1816 1367.7231,52.4805 L1367.7231,55.2031 Q1367.0923,54.6221 1366.4988,54.3523 Q1365.9053,54.0825 1365.2744,54.0825 Q1363.9297,54.0825 1363.2449,55.1492 Q1362.5601,56.2158 1362.5601,58.3159 Q1362.5601,60.4077 1363.2449,61.4744 Q1363.9297,62.541 1365.2744,62.541 Q1365.9053,62.541 1366.4988,62.2712 Q1367.0923,62.0015 1367.7231,61.4204 Z " fill="#000000"/><text fill="#000000" font-family="sans-serif" font-size="14" lengthAdjust="spacing" textLength="73" x="1385.75" y="63.291">BaseModel</text><line style="stroke:#181818;stroke-width:0.5;" x1="1319" x2="1493" y1="74" y2="74"/><ellipse cx="1329" cy="87.7441" fill="none" rx="3" ry="3" style="stroke:#038048;stroke-width:1.0;"/><text fill="#000000" font-family="sans-serif" font-size="14" lengthAdjust="spacing" textLength="37" x="1338" y="91.5352">client</text><ellipse cx="1329" cy="104.2324" fill="none" rx="3" ry="3" style="stroke:#038048;stroke-width:1.0;"/><text fill="#000000" font-family="sans-serif" font-size="14" lengthAdjust="spacing" textLength="13" x="1338" y="108.0234">id</text><line style="stroke:#181818;stroke-width:1.0;stroke-dasharray:1.0,2.0;" x1="1319" x2="1493" y1="114.9766" y2="114.9766"/><polygon fill="#4177AF" points="1329,124.7207,1325,130.7207,1333,130.7207" style="stroke:#1963A0;stroke-width:1.0;"/><text fill="#000000" font-family="sans-serif" font-size="14" lengthAdjust="spacing" textLength="150" x="1338" y="132.5117">__init__(self, client, id)</text><polygon fill="#4177AF" points="1329,141.209,1325,147.209,1333,147.209" style="stroke:#1963A0;stroke-width:1.0;"/><text fill="#000000" font-family="sans-serif" font-size="14" lengthAdjust="spacing" textLength="80" x="1338" y="149">__str__(self)</text><ellipse cx="1329" cy="161.6973" fill="#84BE84" rx="3" ry="3" style="stroke:#038048;stroke-width:1.0;"/><text fill="#000000" font-family="sans-serif" font-size="14" lengthAdjust="spacing" textLength="137" x="1338" y="165.4883">from_dict(self, data)</text><ellipse cx="1329" cy="178.1855" fill="#84BE84" rx="3" ry="3" style="stroke:#038048;stroke-width:1.0;"/><text fill="#000000" font-family="sans-serif" font-size="14" lengthAdjust="spacing" textLength="94" x="1338" y="181.9766">get_html(self)</text><ellipse cx="1329" cy="194.6738" fill="#84BE84" rx="3" ry="3" style="stroke:#038048;stroke-width:1.0;"/><text fill="#000000" font-family="sans-serif" font-size="14" lengthAdjust="spacing" textLength="136" x="1338" y="198.4648">get_markdown(self)</text><ellipse cx="1329" cy="211.1621" fill="#84BE84" rx="3" ry="3" style="stroke:#038048;stroke-width:1.0;"/><text fill="#000000" font-family="sans-serif" font-size="14" lengthAdjust="spacing" textLength="90" x="1338" y="214.9531">get_text(self)</text><ellipse cx="1329" cy="227.6504" fill="#84BE84" rx="3" ry="3" style="stroke:#038048;stroke-width:1.0;"/><text fill="#000000" font-family="sans-serif" font-size="14" lengthAdjust="spacing" textLength="82" x="1338" y="231.4414">get_url(self)</text><ellipse cx="1329" cy="264.627" fill="none" rx="3" ry="3" style="stroke:#038048;stroke-width:1.0;"/><text fill="#000000" font-family="sans-serif" font-size="14" lengthAdjust="spacing" text-decoration="underline" textLength="112" x="1338" y="268.418">url_template: str</text><line style="stroke:#181818;stroke-width:0.5;" x1="1319" x2="1387.5" y1="246.6387" y2="246.6387"/><text fill="#000000" font-family="sans-serif" font-size="14" lengthAdjust="spacing" textLength="37" x="1387.5" y="251.4297">Static</text><line style="stroke:#181818;stroke-width:0.5;" x1="1424.5" x2="1493" y1="246.6387" y2="246.6387"/></g><!--reverse link BaseModel to Media--><g id="link_BaseModel_Media"><path codeLine="134" d="M1301.6915,216.647 C1244.0415,246.637 1182.3,275.48 1110,299.37 C1092.79,305.06 1085.39,297.79 1070,307.37 C1033.89,329.86 1004.13,366.45 982.43,399.65 " fill="none" id="BaseModel-backto-Media" style="stroke:#181818;stroke-width:1.0;"/><polygon fill="none" points="1317.66,208.34,1298.9225,211.3241,1304.4604,221.9698,1317.66,208.34" style="stroke:#181818;stroke-width:1.0;"/></g><!--reverse link BaseModel to Author--><g id="link_BaseModel_Author"><path codeLine="135" d="M1309.9182,289.9879 C1281.6282,328.3579 1261.39,355.79 1235.28,391.2 " fill="none" id="BaseModel-backto-Author" style="stroke:#181818;stroke-width:1.0;"/><polygon fill="none" points="1320.6,275.5,1305.0889,286.4273,1314.7475,293.5485,1320.6,275.5" style="stroke:#181818;stroke-width:1.0;"/></g><!--reverse link BaseModel to Comment--><g id="link_BaseModel_Comment"><path codeLine="136" d="M1406,293.5 C1406,326.08 1406,343.23 1406,374.78 " fill="none" id="BaseModel-backto-Comment" style="stroke:#181818;stroke-width:1.0;"/><polygon fill="none" points="1406,275.5,1400,293.5,1412,293.5,1406,275.5" style="stroke:#181818;stroke-width:1.0;"/></g><!--reverse link BaseModel to Channel--><g id="link_BaseModel_Channel"><path codeLine="137" d="M1505.8523,279.1321 C1528.5323,306.2721 1541.6,321.9 1565,349.89 " fill="none" id="BaseModel-backto-Channel" style="stroke:#181818;stroke-width:1.0;"/><polygon fill="none" points="1494.31,265.32,1501.2483,282.9796,1510.4564,275.2847,1494.31,265.32" style="stroke:#181818;stroke-width:1.0;"/></g><!--reverse link BaseModel to Post--><g id="link_BaseModel_Post"><path codeLine="138" d="M1508.1258,261.8265 C1532.6158,281.5965 1546.62,288.52 1576,299.37 C1618.33,315 1940.7,289.19 1982,307.37 C2014.05,321.48 2042.77,345.45 2066.69,370.88 " fill="none" id="BaseModel-backto-Post" style="stroke:#181818;stroke-width:1.0;"/><polygon fill="none" points="1494.12,250.52,1504.357,266.4951,1511.8947,257.1579,1494.12,250.52" style="stroke:#181818;stroke-width:1.0;"/></g><!--SRC=[nLRHRjem57tdAonu2HfCF4-eKikKxQLhfRA-MavYmAfZP_PDEzInRz-ruoGqJ05Kf9eNsvmRdtlkyKqAbZwnDIV3d6U23Sby7XkMywihCefd-8l9wu2GL39hoQs3-3KXdmXi2nwcfP5-zXc7d_mbb0ebWDB8ShcQu0C4Lp0X8Xk7c3K7ke5SUa2rIUa3C10ffG7pQlrwvmwWmFD2Ck1VY0M3WDrWDoXgzgbMAx7kfp_y9dN297baHh14SklW97gSZAvnnF6OO5YTdU6_IcwH8cSPDtMUbbF3LAPpYbD3yMW5NIh09LyZ2ShiLgNzb9O1k_3oD8Tl00fQIHPsfDR54OaTPDmbmqhOQDDFujfZciCLuiAqs6ZGRUwc-UlZ2hqdJNzMtn7OaTLoQuLMjNz5pdK9H_89g0DX2sPG47l4SIvl2XfJ-WsHNw1H0JcDA-_5az5N7BDPuxtTON3Ep5EcNzJP3_0SgIqJcngH8Dl8pIcgUagqgrl6WD5qmvJYCahiMM65jc3F3Qhy6kLsVHv5dUSeYekR47SmHIFrFE5Dv_2X_OLSLA36IHNDi406tDcakRnjbUfxX8oQlbB8xKStowgW5-oMztSFIxgu-_bZ-QP0Y-gW09iYPs-AMZVkV5b0UoNtMuz8eJJDoeXdpAQ-nwsZBw5ajQdmYdfwL6GXEgpsKKX4cpxOEyhYdjDVatj4D9g7AfviGl-23_DdmLzErIwSSr4xeXbm107yQ5IeMVnVYJsv4eRDBTVPCIFV8ExMmLhbzj-i8ZlJGmw0MOJ_QqbM1ZyACZHjY79jwQZdcixU_SE_BxgRAEIxxdyhnFpFT5fzpNKtgs-1xcveVmVRmO6TRUVIVm00]--></g></svg>