<?xml version="1.0" encoding="us-ascii" standalone="no"?><svg xmlns="http://www.w3.org/2000/svg" xmlns:xlink="http://www.w3.org/1999/xlink" contentStyleType="text/css" height="408px" preserveAspectRatio="none" style="width:641px;height:408px;background:#FFFFFF;" version="1.1" viewBox="0 0 641 408" width="641px" zoomAndPan="magnify"><defs/><g><!--cluster uml_generator--><g id="cluster_uml_generator"><rect fill="#F0F0FF" height="395.79" rx="2.5" ry="2.5" style="stroke:#181818;stroke-width:1.0;" width="628" x="7" y="7"/><path d="M121,7 L121,16.4883 L111,26.4883 L7,26.4883 " fill="none" style="stroke:#181818;stroke-width:1.0;"/><text fill="#000000" font-family="sans-serif" font-size="14" font-weight="bold" lengthAdjust="spacing" textLength="104" x="10" y="21.5352">uml_generator</text></g><!--class UMLGenerator--><g id="elem_UMLGenerator"><rect codeLine="3" fill="#F1F1F1" height="344.7891" id="UMLGenerator" rx="2.5" ry="2.5" style="stroke:#181818;stroke-width:0.5;" width="596" x="23" y="42"/><ellipse cx="267.75" cy="58" fill="#ADD1B2" rx="11" ry="11" style="stroke:#181818;stroke-width:1.0;"/><path d="M270.2231,64.1431 Q269.6421,64.4419 269.0029,64.5913 Q268.3638,64.7407 267.6582,64.7407 Q265.1514,64.7407 263.8315,63.0889 Q262.5117,61.437 262.5117,58.3159 Q262.5117,55.1865 263.8315,53.5347 Q265.1514,51.8828 267.6582,51.8828 Q268.3638,51.8828 269.0112,52.0322 Q269.6587,52.1816 270.2231,52.4805 L270.2231,55.2031 Q269.5923,54.6221 268.9988,54.3523 Q268.4053,54.0825 267.7744,54.0825 Q266.4297,54.0825 265.7449,55.1492 Q265.0601,56.2158 265.0601,58.3159 Q265.0601,60.4077 265.7449,61.4744 Q266.4297,62.541 267.7744,62.541 Q268.4053,62.541 268.9988,62.2712 Q269.5923,62.0015 270.2231,61.4204 Z " fill="#000000"/><text fill="#000000" font-family="sans-serif" font-size="14" lengthAdjust="spacing" textLength="98" x="288.25" y="63.291">UMLGenerator</text><line style="stroke:#181818;stroke-width:0.5;" x1="24" x2="618" y1="74" y2="74"/><ellipse cx="34" cy="87.7441" fill="none" rx="3" ry="3" style="stroke:#038048;stroke-width:1.0;"/><text fill="#000000" font-family="sans-serif" font-size="14" lengthAdjust="spacing" textLength="102" x="43" y="91.5352">all_class_bases</text><ellipse cx="34" cy="104.2324" fill="none" rx="3" ry="3" style="stroke:#038048;stroke-width:1.0;"/><text fill="#000000" font-family="sans-serif" font-size="14" lengthAdjust="spacing" textLength="61" x="43" y="108.0234">directory</text><ellipse cx="34" cy="120.7207" fill="none" rx="3" ry="3" style="stroke:#038048;stroke-width:1.0;"/><text fill="#000000" font-family="sans-serif" font-size="14" lengthAdjust="spacing" textLength="26" x="43" y="124.5117">uml</text><line style="stroke:#181818;stroke-width:1.0;stroke-dasharray:1.0,2.0;" x1="24" x2="618" y1="131.4648" y2="131.4648"/><polygon fill="#4177AF" points="34,141.209,30,147.209,38,147.209" style="stroke:#1963A0;stroke-width:1.0;"/><text fill="#000000" font-family="sans-serif" font-size="14" lengthAdjust="spacing" textLength="191" x="43" y="149">__init__(self, directory_path)</text><ellipse cx="34" cy="161.6973" fill="#84BE84" rx="3" ry="3" style="stroke:#038048;stroke-width:1.0;"/><text fill="#000000" font-family="sans-serif" font-size="14" lengthAdjust="spacing" textLength="211" x="43" y="165.4883">add_inheritance_relations(self)</text><ellipse cx="34" cy="178.1855" fill="#84BE84" rx="3" ry="3" style="stroke:#038048;stroke-width:1.0;"/><text fill="#000000" font-family="sans-serif" font-size="14" lengthAdjust="spacing" textLength="570" x="43" y="181.9766">determine_class_type(self, has_fields, abstract_method_count, total_method_count)</text><ellipse cx="34" cy="194.6738" fill="#84BE84" rx="3" ry="3" style="stroke:#038048;stroke-width:1.0;"/><text fill="#000000" font-family="sans-serif" font-size="14" lengthAdjust="spacing" textLength="285" x="43" y="198.4648">extract_fields_from_init(self, init_method)</text><ellipse cx="34" cy="211.1621" fill="#84BE84" rx="3" ry="3" style="stroke:#038048;stroke-width:1.0;"/><text fill="#000000" font-family="sans-serif" font-size="14" lengthAdjust="spacing" textLength="229" x="43" y="214.9531">format_class_info(self, class_info)</text><ellipse cx="34" cy="227.6504" fill="#84BE84" rx="3" ry="3" style="stroke:#038048;stroke-width:1.0;"/><text fill="#000000" font-family="sans-serif" font-size="14" lengthAdjust="spacing" textLength="128" x="43" y="231.4414">generate_uml(self)</text><ellipse cx="34" cy="244.1387" fill="#84BE84" rx="3" ry="3" style="stroke:#038048;stroke-width:1.0;"/><text fill="#000000" font-family="sans-serif" font-size="14" lengthAdjust="spacing" textLength="257" x="43" y="247.9297">get_type_annotation(self, annotation)</text><ellipse cx="34" cy="260.627" fill="#84BE84" rx="3" ry="3" style="stroke:#038048;stroke-width:1.0;"/><text fill="#000000" font-family="sans-serif" font-size="14" lengthAdjust="spacing" textLength="222" x="43" y="264.418">parse_python_file(self, file_path)</text><ellipse cx="34" cy="277.1152" fill="#84BE84" rx="3" ry="3" style="stroke:#038048;stroke-width:1.0;"/><text fill="#000000" font-family="sans-serif" font-size="14" lengthAdjust="spacing" textLength="239" x="43" y="280.9063">process_attributes(self, body_item)</text><ellipse cx="34" cy="293.6035" fill="#84BE84" rx="3" ry="3" style="stroke:#038048;stroke-width:1.0;"/><text fill="#000000" font-family="sans-serif" font-size="14" lengthAdjust="spacing" textLength="199" x="43" y="297.3945">process_class_def(self, node)</text><ellipse cx="34" cy="310.0918" fill="#84BE84" rx="3" ry="3" style="stroke:#038048;stroke-width:1.0;"/><text fill="#000000" font-family="sans-serif" font-size="14" lengthAdjust="spacing" textLength="210" x="43" y="313.8828">process_fields(self, body_item)</text><ellipse cx="34" cy="326.5801" fill="#84BE84" rx="3" ry="3" style="stroke:#038048;stroke-width:1.0;"/><text fill="#000000" font-family="sans-serif" font-size="14" lengthAdjust="spacing" textLength="223" x="43" y="330.3711">process_function_def(self, node)</text><ellipse cx="34" cy="343.0684" fill="#84BE84" rx="3" ry="3" style="stroke:#038048;stroke-width:1.0;"/><text fill="#000000" font-family="sans-serif" font-size="14" lengthAdjust="spacing" textLength="215" x="43" y="346.8594">process_global_vars(self, node)</text><ellipse cx="34" cy="359.5566" fill="#84BE84" rx="3" ry="3" style="stroke:#038048;stroke-width:1.0;"/><text fill="#000000" font-family="sans-serif" font-size="14" lengthAdjust="spacing" textLength="255" x="43" y="363.3477">process_method_def(self, body_item)</text><ellipse cx="34" cy="376.0449" fill="#84BE84" rx="3" ry="3" style="stroke:#038048;stroke-width:1.0;"/><text fill="#000000" font-family="sans-serif" font-size="14" lengthAdjust="spacing" textLength="135" x="43" y="379.8359">visibility(self, name)</text></g><!--SRC=[XPB1RiCW38RlVGhKNJQjclO0LO_TPJtkR3bW4ZG24JZLegbxzX42Yjf9AxauvlFFRyE0yXDR4jknjz2Ieu3imrRizyU0FHqEuk7uchwZ-Du88It6A3vExs-Lp6aXdWLQ2taR6emKIrQPG39XK_bFf-Je9QqS_0W0umm3F4QoUhTMm83SFLLrfHBMKJ2CJX84iiZ6kvYhAgM8AVJ6KN72qq15jiC8sf1LSIUmYHnGClJ4dLSW_UXu9zWpsgjSrQMlXLy4G0VVPzD5E_jVwcg5zg57BZQCqxwWQwAIPUO4QJHNpRJ4kG50vvApkTiYiYOgEs281CEKBBZaqjQkv_1gZaFmaf83P0wc6PbY8Hkl9Z1C_IsvE5Qa2-YyebjccSiz9JqwEPk-8zPQtwHxEAUM_g7ADQrIVuuzcsWQOmrFLIQzvtdpihdy0W00]--></g></svg>